<svg id="stats-1-stats-2" xmlns="http://www.w3.org/2000/svg" width="53.661" height="53.661" viewBox="0 0 53.661 53.661">
  <path id="Path_89040" data-name="Path 89040" d="M51.985,46.954H6.708V1.677a1.677,1.677,0,1,0-3.354,0V6.708H1.677a1.677,1.677,0,0,0,0,3.354H3.354V20.123H1.677a1.677,1.677,0,1,0,0,3.354H3.354V33.538H1.677a1.677,1.677,0,0,0,0,3.354H3.354V46.954H1.677a1.677,1.677,0,0,0,0,3.354H3.354v1.677a1.677,1.677,0,1,0,3.354,0V50.308H16.769v1.677a1.677,1.677,0,1,0,3.354,0V50.308H30.185v1.677a1.677,1.677,0,1,0,3.354,0V50.308H43.6v1.677a1.677,1.677,0,1,0,3.354,0V50.308h5.031a1.677,1.677,0,1,0,0-3.354Z"/>
  <path id="Path_89041" data-name="Path 89041" d="M230.569,192a5,5,0,0,0-3.865,8.214l-5.2,8.656a5.007,5.007,0,0,0-4.486,1.313l-4.962-2.482a4.862,4.862,0,0,0,.062-.609,5.031,5.031,0,1,0-9.216,2.787l-4.387,5.846a4.988,4.988,0,1,0,2.7,2l4.385-5.847a4.874,4.874,0,0,0,4.975-1.165l4.962,2.484a4.537,4.537,0,0,0-.062.609,5.031,5.031,0,1,0,8.894-3.184l5.2-8.656a5.03,5.03,0,1,0,1-9.959Z" transform="translate(-181.938 -181.938)" fill="#ef6356"/>
</svg>
